<?xml version="1.0" encoding="UTF-8"?><svg id="a" xmlns="http://www.w3.org/2000/svg" width="224.3333" height="94.474" viewBox="0 0 224.3333 94.474"><defs><style>.b{fill:red;}.c{fill:#80d2ff;}.d{fill:#a3a3a3;}.e{fill:#6d6d6d;}.f{fill:#6fc666;}.g{fill:rgba(128,210,255,.5);}.h{fill:none;stroke:#000;stroke-linecap:round;stroke-miterlimit:10;stroke-width:1.05px;}</style></defs><circle class="f" cx="93.0381" cy="48.2156" r=".8498"/><circle class="f" cx="83.5507" cy="46.6298" r=".8498"/><ellipse class="c" cx="108.3876" cy="83.5043" rx="13.9904" ry="10.9698"/><ellipse class="d" cx="109.0247" cy="75.7868" rx="49.0569" ry="11.6802"/><path class="e" d="M112.1667,43.8636c29.2707,0,56.8098,1.5005,77.5441,4.2249,10.192,1.3391,18.2302,2.91,23.8913,4.6686,4.9962,1.5523,10.7313,3.9223,10.7313,8.5103s-5.7351,6.958-10.7313,8.5103c-5.6611,1.7586-13.6993,3.3295-23.8913,4.6687-20.7343,2.7245-48.2733,4.2249-77.5441,4.2249s-56.8095-1.5005-77.5438-4.2249c-10.192-1.3392-18.2305-2.9101-23.8913-4.6687-4.9965-1.5523-10.7316-3.9223-10.7316-8.5103s5.7351-6.958,10.7316-8.5103c5.6608-1.7586,13.6993-3.3295,23.8913-4.6686,20.7343-2.7245,48.273-4.2249,77.5438-4.2249Z"/><ellipse class="d" cx="112.1667" cy="58.199" rx="109.0985" ry="14.3355"/><ellipse class="e" cx="108.3876" cy="53.5041" rx="34.4035" ry="4.2632"/><path class="f" d="M121.1471,19.9018c0,10.0633-7.7693,25.8949-14.9966,25.8949s-14.6145-15.8316-14.6145-25.8949,7.3872-10.5475,14.6145-10.5475,14.9966,.4842,14.9966,10.5475Z"/><ellipse cx="97.3337" cy="29.6979" rx=".8597" ry="3.3882"/><ellipse cx="108.0275" cy="29.6979" rx=".8597" ry="3.3882"/><line class="h" x1="94.7547" y1="24.8071" x2="99.9127" y2="27.8124"/><line class="h" x1="110.6066" y1="24.8071" x2="105.4485" y2="27.8124"/><path class="h" d="M101.8521,40.9967s2.0347-4.8643,8.7545-1.5027"/><line class="h" x1="88.3703" y1="45.5342" x2="90.2737" y2="56.5997"/><circle class="b" cx="88.3703" cy="44.8342" r="1.9034"/><line class="h" x1="93.2082" y1="45.7759" x2="95.1116" y2="56.8414"/><circle class="b" cx="93.2082" cy="45.0759" r="1.9034"/><circle class="f" cx="87.967" cy="49.5817" r="2.7022"/><circle class="f" cx="93.8879" cy="50.0849" r="2.7022"/><path class="f" d="M111.5076,57.82l-10.7614-.0527c-3.1901,0-2.1446-.3843-2.1446-3.5744l.2074-1.787c0-3.1901,2.5861-5.7761,5.7761-5.7761h3.2884c3.1901,0,5.7761,2.5861,5.7761,5.7761l.2943,2.2735c0,3.1901,.7537,3.1406-2.4364,3.1406Z"/><path class="g" d="M145.1663,52.8188c.8736,3.2721-15.9987,5.045-37.3401,4.9483-20.1628-.0914-36.5635-1.5473-37.3399-4.6271-.8219-3.2602,16.7176-53.1399,37.34-53.1399s36.4727,49.5704,37.34,52.8188Z"/></svg>